<svg width="147" height="54" viewBox="0 0 147 54" fill="none" xmlns="http://www.w3.org/2000/svg">
<g clip-path="url(#clip0_89_43)">
<path d="M34.8931 0C29.1524 0 23.6468 2.17809 19.5876 6.05513L6.33977 18.7081C2.28048 22.5851 0 27.8435 0 33.3265C0 44.7442 9.69096 54 21.6454 54C27.3861 54 32.8916 51.8218 36.9509 47.9448L46.1145 39.1927C46.1147 39.1928 46.1145 39.1925 46.1145 39.1927L72.814 13.6919C74.7527 11.8402 77.3821 10.8 80.1239 10.8C84.714 10.8 88.6056 13.6573 89.9548 17.6113L98.3811 9.56333C94.537 3.81301 87.7967 0 80.1239 0C74.3831 0 68.8776 2.17809 64.8183 6.05513L28.9552 40.3081C27.0165 42.1598 24.3871 43.2 21.6454 43.2C15.936 43.2 11.3077 38.7796 11.3077 33.3265C11.3077 30.7078 12.3968 28.1965 14.3355 26.3448L27.5832 13.6919C29.5219 11.8402 32.1514 10.8 34.8931 10.8C39.4834 10.8 43.3748 13.6575 44.724 17.6116L53.1505 9.56353C49.3064 3.81312 42.5661 0 34.8931 0Z" fill="white"/>
<path d="M74.1859 40.3081C72.2472 42.1598 69.6178 43.2 66.8761 43.2C62.2865 43.2 58.3953 40.3434 57.0457 36.3901L48.6196 44.4379C52.4639 50.1874 59.2038 54 66.8761 54C72.6168 54 78.1223 51.8218 82.1816 47.9448L118.045 13.6919C119.983 11.8402 122.613 10.8 125.355 10.8C131.064 10.8 135.692 15.2205 135.692 20.6735C135.692 23.2922 134.603 25.8035 132.664 27.6552L119.417 40.3081C117.478 42.1598 114.849 43.2 112.107 43.2C107.517 43.2 103.626 40.3429 102.276 36.3892L93.85 44.4371C97.6941 50.1872 104.434 54 112.107 54C117.848 54 123.353 51.8218 127.412 47.9448L140.66 35.2919C144.719 31.4149 147 26.1565 147 20.6735C147 9.25585 137.309 0 125.355 0C119.614 0 114.108 2.17809 110.049 6.05513L74.1859 40.3081Z" fill="white"/>
</g>
<defs>
<clipPath id="clip0_89_43">
<rect width="147" height="54" fill="white"/>
</clipPath>
</defs>
</svg>
