<svg width="180" height="73" viewBox="0 0 180 73" fill="none" xmlns="http://www.w3.org/2000/svg">
<g clip-path="url(#clip0_89_59)">
<path d="M8.58614 7.72888C9.05414 5.47683 11.2681 3.65 13.5235 3.65H25.7851L15.5881 52.602H3.32654C1.06934 52.602 -0.381456 50.777 0.088344 48.5231L8.58614 7.72888ZM49.4587 7.72888C49.9285 5.47683 52.1407 3.65 54.3961 3.65H66.6577L56.4607 52.602H44.1991C41.9419 52.602 40.4911 50.777 40.9609 48.5231L49.4587 7.72888ZM131.206 7.72888C131.674 5.47683 133.884 3.65 136.143 3.65H148.405L138.208 52.602H125.944C123.687 52.602 122.238 50.777 122.708 48.5231L131.206 7.72888ZM70.7455 3.65H83.0071C85.2643 3.65 86.7151 5.475 86.2453 7.72888L77.7475 48.5231C77.2795 50.777 75.0673 52.602 72.8101 52.602H60.5485L70.7455 3.65ZM152.493 3.65H164.754C167.011 3.65 168.462 5.475 167.992 7.72888L159.493 48.5231C159.025 50.777 156.814 52.602 154.557 52.602H142.294L152.493 3.65ZM90.3331 7.72888C90.8011 5.47683 93.0115 3.65 95.2687 3.65H107.532L97.3333 52.602H85.0717C82.8145 52.602 81.3637 50.777 81.8353 48.5231L90.3313 7.72888H90.3331ZM111.618 3.65H123.882C126.139 3.65 127.588 5.475 127.118 7.72888L114.372 68.9211C113.901 71.1732 111.69 73 109.433 73H97.1695L111.618 3.65ZM23.0743 36.2847H39.4237L36.8749 48.5231C36.4051 50.777 34.1929 52.602 31.9375 52.602H19.6741L23.0725 36.2865L23.0743 36.2847ZM80.1361 56.6827H96.4837L93.0853 73H80.8237C78.5647 73 77.1157 71.175 77.5855 68.9211L80.1361 56.6827ZM124.513 60.4769L122.443 70.4158C122.353 70.8429 122.213 70.9597 121.785 70.9597H120.843C120.415 70.9597 120.321 70.8429 120.411 70.4158L122.481 60.4769C122.571 60.0516 122.712 59.933 123.14 59.933H124.081C124.51 59.933 124.603 60.0516 124.513 60.4769ZM127.235 67.1819H127.042C126.837 67.1819 126.765 67.2403 126.724 67.4465L126.105 70.4158C126.015 70.8429 125.872 70.9597 125.446 70.9597H124.503C124.076 70.9597 123.982 70.8429 124.071 70.4158L126.141 60.4769C126.231 60.0516 126.375 59.933 126.801 59.933H128.745C130.984 59.933 131.832 60.7415 131.418 62.7252L131.073 64.3878C130.659 66.3734 129.474 67.1819 127.235 67.1819ZM127.804 62.2562L127.264 64.8587C127.219 65.0649 127.266 65.1233 127.473 65.1233H127.782C128.502 65.1233 128.889 64.8295 129.046 64.0794L129.262 63.0355C129.418 62.2873 129.156 61.9916 128.434 61.9916H128.124C127.919 61.9916 127.847 62.05 127.804 62.2562ZM134.532 63.8586L136.062 65.5649C136.865 66.4464 136.977 66.9757 136.771 67.9612L136.717 68.2258C136.33 70.0782 135.409 71.1075 133.272 71.1075C131.137 71.1075 130.61 70.2406 131.103 67.8717L131.164 67.5797C131.254 67.1527 131.397 67.0341 131.823 67.0341H132.824C133.252 67.0341 133.346 67.1527 133.256 67.5779L133.121 68.2258C132.999 68.8134 133.186 69.0489 133.701 69.0489C134.217 69.0489 134.498 68.8299 134.61 68.3006L134.667 68.0196C134.754 67.6071 134.707 67.4027 134.264 66.9173L132.824 65.3441C132.018 64.4773 131.915 63.9754 132.12 62.9899L132.187 62.6687C132.574 60.8163 133.495 59.7852 135.63 59.7852C137.767 59.7852 138.294 60.6539 137.801 63.0209L137.74 63.3147C137.65 63.7418 137.508 63.8586 137.081 63.8586H136.078C135.652 63.8586 135.558 63.7418 135.646 63.3147L135.781 62.6687C135.904 62.0792 135.718 61.8456 135.202 61.8456C134.687 61.8456 134.404 62.0646 134.295 62.5939L134.242 62.8439C134.152 63.2709 134.199 63.4772 134.532 63.8586ZM143.158 60.4769C143.248 60.0516 143.388 59.933 143.817 59.933H144.758C145.186 59.933 145.28 60.0516 145.19 60.4769L143.649 67.8736C143.156 70.2406 142.269 71.1075 140.132 71.1075C137.997 71.1075 137.47 70.2406 137.963 67.8717L139.504 60.4769C139.594 60.0516 139.736 59.933 140.163 59.933H141.106C141.532 59.933 141.626 60.0516 141.538 60.4769L139.923 68.2258C139.801 68.8134 140.002 69.0489 140.562 69.0489C141.106 69.0489 141.421 68.8134 141.543 68.2258L143.158 60.4769ZM149.289 66.461C149.294 66.5797 149.332 66.607 149.406 66.607C149.478 66.607 149.53 66.5797 149.584 66.461L152.129 60.3163C152.253 60.006 152.401 59.933 152.77 59.933H154.199C154.626 59.933 154.719 60.0516 154.631 60.4769L152.561 70.4158C152.471 70.8429 152.327 70.9597 151.9 70.9597H151.224C150.797 70.9597 150.702 70.8429 150.792 70.4158L151.785 65.6525C151.812 65.5211 151.789 65.4901 151.701 65.4901C151.641 65.4901 151.575 65.5212 151.539 65.6234L149.483 70.476C149.335 70.8283 149.146 70.9597 148.72 70.9597H148.32C147.877 70.9597 147.744 70.8283 147.744 70.476L147.694 65.6215C147.685 65.5193 147.661 65.4901 147.588 65.4901C147.499 65.4901 147.463 65.5211 147.436 65.6525L146.445 70.4158C146.355 70.8429 146.214 70.9597 145.786 70.9597H145.109C144.681 70.9597 144.587 70.8429 144.677 70.4158L146.747 60.4769C146.837 60.0516 146.979 59.933 147.406 59.933H148.63C149.145 59.933 149.31 60.0516 149.307 60.5663L149.287 66.461H149.289ZM180 3.65C180 5.66663 178.398 7.3 176.424 7.3C175.952 7.29856 175.486 7.203 175.051 7.01877C174.616 6.83454 174.222 6.56526 173.889 6.2263C173.557 5.88734 173.294 5.48535 173.115 5.0433C172.936 4.60125 172.845 4.1278 172.847 3.65C172.847 1.63338 174.449 0 176.424 0C178.398 0 180 1.63338 180 3.65Z" fill="white"/>
</g>
<defs>
<clipPath id="clip0_89_59">
<rect width="180" height="73" fill="white"/>
</clipPath>
</defs>
</svg>
